<svg xmlns="http://www.w3.org/2000/svg" version="1.1" xmlns:xlink="http://www.w3.org/1999/xlink" width="512" height="512" x="0" y="0" viewBox="0 0 512 512" style="enable-background:new 0 0 512 512" xml:space="preserve" class=""><g><path d="M372.83 32.97c-37.17 0-72.11 14.47-98.36 40.73l-18.53 18.53-18.48-18.53c-26.25-26.25-61.2-40.71-98.41-40.71S66.88 47.45 40.61 73.71c-54.16 54.26-54.16 142.55.03 196.84l203.68 203.68c3.07 3.07 7.24 4.8 11.59 4.8s8.51-1.72 11.58-4.8l203.7-203.71c26.31-26.3 40.8-61.26 40.8-98.41S497.51 100 471.2 73.7c-26.26-26.27-61.19-40.73-98.37-40.73zm75.21 214.39L255.92 439.48 93.91 277.38l-30.1-30.01c-41.42-41.5-41.42-109.02-.01-150.51 20.06-20.06 46.79-31.11 75.25-31.11s55.19 11.05 75.23 31.09l30.04 30.13c3.07 3.08 7.24 4.81 11.59 4.82h.01c4.35 0 8.51-1.72 11.58-4.8l30.13-30.13c20.07-20.07 46.78-31.13 75.2-31.13s55.13 11.05 75.2 31.13c20.12 20.12 31.2 46.84 31.2 75.25s-11.07 55.13-31.19 75.25z" fill="#000000" opacity="1" data-original="#000000" class=""></path></g></svg>