<svg xmlns="http://www.w3.org/2000/svg" version="1.1" xmlns:xlink="http://www.w3.org/1999/xlink" width="512" height="512" x="0" y="0" viewBox="0 0 512 512" style="enable-background:new 0 0 512 512" xml:space="preserve" class=""><g><path fill-rule="evenodd" d="M86.3 58.1h264.5s11.4-.3 27.4 1.1C528.1 71.8 529 233.7 422.8 251.7c-3.9.7-7.5 1.3-10.7 1.9v4.7c3.3.6 6.9 1.3 10.7 2 106.1 18 125.1 179.9-24.8 192.5-16 1.4-27.4 1.1-27.4 1.1H86.3V176.2H5.5V58.1zm231.9 93.6H217.5v67.5h77.3v-.2l.5.2h35.3c9.4-3.9 17-12.7 17-30.7.1-25.4-15.2-34.2-29.4-36.8zm3 148.8H217.5v81.3h76.6c2 0 65.8-.6 65.8-41.4 0-37.2-32.2-39.8-38.7-39.9z" clip-rule="evenodd" fill="#ffff" opacity="1" data-original="#fffff" class=""></path></g></svg>