<svg xmlns="http://www.w3.org/2000/svg" version="1.1" xmlns:xlink="http://www.w3.org/1999/xlink" width="512" height="512" x="0" y="0" viewBox="0 0 512 512" style="enable-background:new 0 0 512 512" xml:space="preserve" class=""><g><path d="M432.356 335.644H79.644C35.658 335.644 0 299.987 0 256s35.658-79.644 79.644-79.644h352.711C476.342 176.356 512 212.014 512 256s-35.658 79.644-79.644 79.644zM79.644 187.733c-37.7 0-68.267 30.566-68.267 68.267s30.566 68.267 68.267 68.267h352.711c37.7 0 68.267-30.566 68.267-68.267s-30.566-68.267-68.267-68.267z" fill="#000000" opacity="1" data-original="#000000" class=""></path><path d="M460.8 301.511a5.671 5.671 0 0 1-4.022-1.667l-22.756-22.756a5.683 5.683 0 0 1 .142-8.044 5.688 5.688 0 0 1 7.902 0l22.756 22.756a5.692 5.692 0 0 1 0 8.044 5.68 5.68 0 0 1-4.022 1.667z" fill="#000000" opacity="1" data-original="#000000" class=""></path><path d="M415.289 290.133c-21.993 0-39.822-17.829-39.822-39.822s17.829-39.822 39.822-39.822 39.822 17.829 39.822 39.822c-.023 21.982-17.84 39.8-39.822 39.822zm0-68.266c-15.707 0-28.444 12.737-28.444 28.444s12.737 28.444 28.444 28.444 28.444-12.737 28.444-28.444c-.017-15.701-12.743-28.427-28.444-28.444z" fill="#000000" opacity="1" data-original="#000000" class=""></path></g></svg>