<svg xmlns="http://www.w3.org/2000/svg" version="1.1" xmlns:xlink="http://www.w3.org/1999/xlink" width="512" height="512" x="0" y="0" viewBox="0 0 24 24" style="enable-background:new 0 0 512 512" xml:space="preserve" class=""><g><clipPath id="a"><path d="M0 0h24v24H0z" fill="#ffffff" opacity="1" data-original="#000000" class=""></path></clipPath><g fill="#000" fill-rule="evenodd" clip-path="url(#a)" clip-rule="evenodd"><path d="M.25 2C.25 1.033 1.033.25 2 .25h20c.967 0 1.75.783 1.75 1.75v3A1.75 1.75 0 0 1 22 6.75H2A1.75 1.75 0 0 1 .25 5zM.25 10.5c0-.967.783-1.75 1.75-1.75h20c.967 0 1.75.783 1.75 1.75v3A1.75 1.75 0 0 1 22 15.25H2A1.75 1.75 0 0 1 .25 13.5zM.25 19c0-.967.783-1.75 1.75-1.75h20c.967 0 1.75.783 1.75 1.75v3A1.75 1.75 0 0 1 22 23.75H2A1.75 1.75 0 0 1 .25 22z" fill="#ffffff" opacity="1" data-original="#000000" class=""></path></g></g></svg>