<svg xmlns="http://www.w3.org/2000/svg" version="1.1" xmlns:xlink="http://www.w3.org/1999/xlink" width="512" height="512" x="0" y="0" viewBox="0 0 32 32" style="enable-background:new 0 0 512 512" xml:space="preserve" class=""><g><g data-name="Layer 2"><path d="M6.38 29.75a1.88 1.88 0 0 0 1.33-.55l11.87-11.87a1.86 1.86 0 0 0 0-2.66L7.71 2.8A1.88 1.88 0 0 0 4.5 4.13v23.74a1.88 1.88 0 0 0 1.16 1.74 1.84 1.84 0 0 0 .72.14zM27.5 26V6a3 3 0 0 0-6 0v20a3 3 0 0 0 6 0z" fill="#ffffff" opacity="1" data-original="#000000" class=""></path></g></g></svg>